<?xml version="1.0" encoding="utf-8"?>
<!-- Generator: Adobe Illustrator 23.0.1, SVG Export Plug-In . SVG Version: 6.00 Build 0)  -->
<svg version="1.1" id="图层_1" xmlns="http://www.w3.org/2000/svg" xmlns:xlink="http://www.w3.org/1999/xlink" x="0px" y="0px"
	 viewBox="0 0 91 66" style="enable-background:new 0 0 91 66;" xml:space="preserve">
<style type="text/css">
	.st0{fill:#459DF5;}
	.st1{fill-rule:evenodd;clip-rule:evenodd;fill:#459DF5;}
</style>
<title>引语</title>
<desc>Created with Sketch.</desc>
<g id="Page-2">
	<g id="A6_秒懂确认版本" transform="translate(-1304.000000, -285.000000)">
		<g id="s1" transform="translate(-4.000000, 179.000000)">
			<g id="引语" transform="translate(1305.000000, 103.000000)">
				<g>
					<path class="st0" d="M48.2,20.6c0.2,0,0.4-0.1,0.5-0.2c0.1-0.1,0.2-0.3,0.1-0.5c0-0.6-0.1-1.4-0.3-2.5L48.4,16
						c0-0.1-0.1-0.3-0.1-0.5c-0.1-0.2-0.1-0.4-0.1-0.4c0-0.1,0.2-0.3,0.8-0.5c0.4-0.2,0.6-0.3,0.7-0.3l0.1-0.1
						c0.1-0.1,0.1-0.2,0.2-0.4c0-0.1,0-0.2,0-0.2l0.2-0.2L50,13.2c-0.1-0.1-0.2-0.2-0.3-0.2c0.1-0.1,0.1-0.2,0.2-0.4
						c0.4-0.5,0.6-1,0.6-1.3c-0.1-0.6-1-0.6-1.3-0.6c-1,0.1-1.9,0.4-2.8,0.9l-0.1,0.1l0,0.1c0,0.1-0.1,0.2-0.1,0.4
						c0-0.2-0.1-0.3-0.1-0.5c0,0,0,0,0-0.1c0.1-0.1,0.2-0.3,0.2-0.4l0-0.1c-0.1-0.2-0.4-0.4-0.8-0.4c-0.4,0-0.5,0.2-0.6,0.4l0,0.1
						l0,0.4c0,0.2,0,0.3,0,0.4c0,0.4,0.2,0.8,0.4,1.4c0.2,0.6,0.3,1,0.4,1.3l0,0.4c-0.1,0.2-0.2,0.3-0.2,0.5c0,0.3,0.3,0.5,0.4,0.5
						c0,0,0.1,0,0.1,0c-0.1,0-0.2,0-0.4,0l-0.1,0l-0.1,0.1c-0.1,0.1-0.1,0.2-0.2,0.4l0,0l0.2,1.9c-0.1,0.3-0.1,0.7,0,1.4l0,0.1
						c0.1,0.6,0.4,0.7,0.5,0.7c0,0,0.1,0,0.1,0c0.6-0.1,0.9-0.5,0.9-1.2c0-0.1-0.1-0.3-0.2-0.4l-0.1-0.2l0-0.1c0-0.2,0-0.4,0-0.6
						c0.1,0.2,0.3,0.6,0.6,1.1C47.8,20.4,48,20.6,48.2,20.6z M47,15.6C47,15.6,47,15.6,47,15.6L47,15.6C47.1,15.7,47.1,15.7,47,15.6
						C47,15.7,47,15.6,47,15.6z M47.1,16.8c0.1,0,0.1,0,0.2,0l0,0.3c0,0,0,0.2,0.1,0.3l0,0.3c-0.2-0.3-0.5-0.6-0.7-0.9
						C46.9,16.8,47,16.8,47.1,16.8z M47,12.6c0.2,0,0.3-0.1,0.4-0.2c0,0,0,0,0.1-0.1l0.1,0c0.5-0.3,1-0.5,1.5-0.5c0,0,0,0,0.1,0
						L49,11.9l-0.1,0l-0.1,0.2c-0.1,0.4-0.4,0.9-1,1.5c-0.5,0.3-0.8,0.4-1,0.6c-0.1-0.3-0.2-0.7-0.4-1.2c-0.1-0.2-0.1-0.4-0.2-0.5
						C46.4,12.6,46.6,12.7,47,12.6z"/>
					<path class="st0" d="M60.8,11.1c0.9,0.6,1.5,1.5,1.7,2.8c0,0.2,0,0.4,0,0.7c0,0.3,0,0.5,0,0.7l0,0c0,0.2,0.2,0.6,0.5,0.6
						c0,0,0,0,0.1,0c0.2,0,0.4-0.2,0.5-0.4c0,0,0,0,0.1-0.1l0.2,0l-0.3-2.3c0-0.1-0.1-0.2-0.1-0.3c0,0,0-0.1-0.1-0.3l0-0.1
						c0,0,0-0.1-0.1-0.2c-0.2-0.7-0.8-1.4-1.6-2.1l-0.3-0.2l-0.1-0.1c-0.2,0-0.3-0.1-0.4,0c-0.2,0-0.3,0.3-0.5,0.8l0,0.1l0,0.1
						C60.4,10.8,60.5,10.9,60.8,11.1z"/>
					<path class="st0" d="M66.9,11C67.5,11,68,11,68.6,11l0,0.2c0,0.1,0.1,0.3,0.2,0.7c0.3,0.7,0.4,1.2,0.5,1.7l-0.1,0.1l0,0.1
						c0,0.2,0.1,0.6,0.4,1.2c0.1,0.1,0.1,0.2,0.1,0.3c0,0.1,0,0.2,0.1,0.3c-0.6,0.2-0.7,0.5-0.7,0.8l0,0.1c0.1,0.2,0.3,0.4,0.5,0.4
						l0,0l0,0c0.3,0,0.7-0.2,1.2-0.4c0.3-0.1,0.6-0.2,0.8-0.3c0,0.1,0,0.2,0,0.3c-0.2,0.3-0.9,0.7-2.6,1.1l-0.1,0
						c-0.2,0-0.4,0.2-0.4,0.6v0c0,0.4,0.3,0.6,0.6,0.7l0.1,0l0.1-0.1c0,0,0.1-0.1,0.5-0.1c0.2-0.1,0.3-0.1,0.4-0.1
						c0.2-0.1,0.5-0.2,0.9-0.4c0.4-0.2,0.8-0.3,0.9-0.4c0.6-0.1,1.1-0.2,1.5-0.3l0.1,0l0,0l0.1,0c0,0,0.3-0.1,0.7-0.2
						C75,17,75.2,17,75.3,17c0.3-0.1,0.5-0.1,0.6-0.1l0.2,0l0.3,0c0.1,0,0.2,0.1,0.4,0.1l0.1,0l0.1,0c0.1,0,0.1,0,0.4-0.1l0.2-0.1
						l0-0.2l0.2-0.3l0-0.1c0-0.1,0-0.2,0-0.3c-0.1-0.2-0.3-0.3-0.5-0.3l-0.1,0l-0.9,0.1c-0.5,0.1-1.1,0.2-2,0.5
						c-0.1,0-0.2,0-0.2,0.1c0.5-0.6,0.7-0.8,0.7-0.9c0-0.1,0-0.2,0.1-0.2c0.1-0.1,0.1-0.2,0.1-0.4c0-0.2-0.1-0.3-0.2-0.4
						c-0.1-0.1-0.3-0.1-0.6-0.1c-0.2,0-0.4,0.1-0.7,0.2c-0.1,0-0.3,0.1-0.4,0.1l0.8-0.4l0-0.1c0.1-0.2,0.3-0.4,0.5-0.5
						c0.1,0,0.2-0.1,0.9-1.1l0.2-0.2c0.6-0.7,0.8-1.4,0.8-2c0-0.3-0.1-0.6-0.3-0.8c-0.3-0.2-0.6-0.3-0.9-0.3c0,0-0.1,0-0.4,0l-0.1,0
						c0.7-0.2,1.3-0.5,1.2-1c0-0.3-0.3-0.5-0.6-0.6l0,0l0,0c-0.1,0-0.2,0-0.5,0.2c-0.1,0-0.2,0.1-0.3,0.2c-0.2,0.1-0.6,0.2-1,0.4
						c-0.4,0.2-0.7,0.3-0.9,0.3c0,0,0,0,0,0l0-0.2c0,0,0,0,0,0C72.8,8.2,72.9,8,73,7.7l0-0.1l0-0.1c-0.1-0.2-0.2-0.3-0.3-0.4
						c-0.1,0-0.2-0.1-0.3,0c-0.1,0-0.3,0.1-0.5,0.2c-0.1,0-0.1,0.1-0.2,0.1c0.1-0.1,0.3-0.3,0.4-0.5c0.3-0.3,0.5-0.6,0.7-0.7
						c0.4-0.1,0.7-0.3,0.8-0.3l0.1,0l0.5-0.6l-0.1-0.2c-0.1-0.2-0.2-0.5-0.8-0.5c-0.1,0-0.1,0-0.2,0.1L73,3.6c0-0.2-0.1-0.3-0.2-0.4
						c-0.1-0.1-0.3-0.1-0.5-0.1c-0.3,0-0.6,0.3-0.6,0.8c0,0.1,0,0.1,0.1,0.2l0,0.1c0.1,0.7,0,0.9,0,0.9c-0.2,0.1-0.4,0.1-0.7,0.1
						c-0.2,0-0.5,0-0.7,0c0,0,0-0.1-0.1-0.2c-0.3-0.7-0.7-1.6-1.4-1.5l-0.1,0c-0.2,0.1-0.4,0.2-0.4,0.6l0,0.2l0.1,0.1
						c0,0,0,0,0.1,0.1c0,0.1,0.1,0.2,0.2,0.3c0.1,0.3,0.2,0.5,0.3,0.6c-0.5,0.1-0.9,0.2-1.2,0.3c-0.5,0.3-0.6,0.6-0.5,0.9
						c0.2,0.4,0.5,0.5,0.6,0.4c0.1,0,0.2-0.1,0.5-0.2l0.2-0.1c0.3-0.1,0.6-0.1,0.8-0.2l0.2,0C70,6.8,70.2,7,70.3,7.3
						c0,0-0.1,0-0.1,0l-0.1,0c-0.1,0-0.1,0.1-0.1,0.1c-0.5,0-1.1,0.1-1.5,0.4L68.3,8c-0.2,0.2-0.2,0.4-0.2,0.6l0,0.1l0.1,0.1
						c0,0.1,0.2,0.2,0.3,0.3l0.2,0.2l0.2-0.2c0,0,0.1,0,0.4-0.2c0.2-0.1,0.3-0.1,0.3-0.2l0.6-0.1c0.2,0,0.6,0,1,0l0,0.3
						c-0.3,0.1-0.4,0.2-0.5,0.3c-0.8,0.3-1.5,0.5-2.1,0.5c-0.4,0-0.7,0.1-0.9,0c-0.1,0-0.1-0.1-0.2-0.1c-0.1,0-0.2-0.1-0.4,0
						c-0.5,0.1-0.7,0.4-0.6,0.7c0,0.2,0.1,0.3,0.2,0.4C66.8,10.9,66.9,11,66.9,11z M71,6.6c0,0,0-0.1,0-0.2l0.1,0c0,0,0,0,0,0
						C71.1,6.5,71,6.5,71,6.6z M71.1,14.7c0.3-0.2,0.5-0.3,0.7-0.3c0,0.2,0,0.3,0,0.4L71.1,15c0,0,0-0.1,0-0.1
						C71.1,14.7,71.1,14.7,71.1,14.7z M71.2,12.8L71.2,12.8c-0.2,0.1-0.3,0.2-0.4,0.4c-0.1,0.1-0.1,0.2-0.2,0.2c0,0-0.1-0.1-0.1-0.2
						c0.2-0.1,0.4-0.1,0.6-0.3C71.1,12.8,71.2,12.8,71.2,12.8z M73.2,10.9c0.1,0.1,0.1,0.2,0.1,0.3l0,0.3l0.1,0l0,0
						c0,0.1,0,0.1,0,0.1c-0.1-0.1-0.2-0.2-0.4-0.2c0,0-0.1,0-0.1,0c0,0-0.1,0-0.1,0l0,0c0-0.4,0-0.6,0-0.7c0.2-0.1,0.4-0.2,0.7-0.3
						l-0.2,0.3L73.2,10.9z M71,11.6c0.1-0.1,0.2-0.1,0.1-0.1c0.1,0,0.1,0,0.3-0.1l0,0l0,0.1C71.4,11.5,71.2,11.5,71,11.6z
						 M74.6,11.4c0,0-0.1,0.1-0.1,0.1c-0.1-0.2-0.2-0.5-0.5-0.8c-0.1-0.2-0.2-0.2-0.3-0.3l-0.1-0.1c0.1,0,0.2,0,0.3-0.1l0.5-0.1
						c0.4,0,0.5,0,0.5,0c0,0,0.1,0,0.1,0.1c0,0.1,0,0.2-0.2,0.5C74.7,11.1,74.6,11.3,74.6,11.4z M70.2,10.6l-0.3,0.2
						c0,0-0.1,0.1-0.1,0.1c0,0,0,0,0,0c0,0,0-0.1,0-0.1C70,10.7,70.1,10.6,70.2,10.6C70.3,10.6,70.2,10.6,70.2,10.6z M69,18L69,18
						L69,18L69,18z"/>
					<path class="st0" d="M43.6,10.2l0.1,0c0.7,0.2,1.4,0.3,2.1,0.3l4.7-0.6c0.3,0,0.4-0.2,0.4-0.3C51,9.5,51,9.4,51,9.2
						c-0.1-0.4-0.4-0.5-0.5-0.5l0,0l0,0c-0.2,0-0.4,0.1-0.7,0.2C49.3,9,49.2,9,49.1,9l-0.7,0.1c0,0,0.1-0.1,0.1-0.1
						c0.1-0.1,0.1-0.2,0.1-0.4l0-0.1l-0.1-0.1c-0.8-0.7-1.7-1.1-2.5-1.3L45.6,7l0.1,0.4l0,0.1l-0.1,0.2L45.7,8l0,0.1l0,0.3l0.3,0
						c0,0,0.1,0,0.6,0.2c0,0,0.1,0,0.4,0.2c0.6,0.3,0.9,0.4,1,0.5l0,0c-0.5,0-0.9,0-1.2,0.1c-0.6,0.1-1.2,0.1-1.7,0.1
						c0,0-0.2,0-0.5-0.1c-0.3-0.1-0.6-0.2-0.9-0.1c-0.1,0-0.4,0.1-0.5,0.6C43.4,9.8,43.4,9.9,43.6,10.2L43.6,10.2z"/>
					<path class="st0" d="M55.7,9.4l2.1,0.5l0.2,0c0.2,0,0.3-0.1,0.4-0.2s0.1-0.2,0.1-0.5c-0.1-0.2-0.2-0.3-0.3-0.3
						c-0.1,0-0.2-0.1-0.3,0c-0.1,0-0.2-0.1-0.4-0.2c-0.4-0.2-0.5-0.2-0.6-0.2l-0.1,0C56.4,8.1,56.1,8,55.9,8l-0.3,0l-0.1,0.1
						c-0.1,0.2-0.2,0.3-0.2,0.5l0,0l0,0C55.4,9,55.5,9.2,55.7,9.4z"/>
					<path class="st0" d="M65,33.1c0-0.1,0-0.2,0-0.5c0-0.5,0-0.9,0-1.2l-0.1-0.5l-0.1-0.1c-0.1-0.1-0.2-0.2-0.3-0.3
						c-0.2-0.5-0.7-0.8-1.7-0.7c-0.6,0.1-1.3,0.4-2.2,0.9c0,0-0.1,0-0.1,0c0,0,0,0,0-0.1c0.1-0.6,0.2-1.1,0.3-1.8l0.1-0.1l0-0.8
						c0.1,0,0.1,0,0.2-0.1l0.5-0.1l2.5-0.7c0.7-0.2,0.8-0.6,0.8-1c0-0.1-0.1-0.2-0.2-0.3c-0.2-0.1-0.3-0.1-0.5-0.1
						c-0.4,0-0.9,0.2-1.4,0.4l-0.2,0.1c-0.2,0.1-0.5,0.2-1,0.3c-0.4,0-0.7,0.1-0.9,0.2l-0.3,0.2c-0.1,0-0.2,0-0.3,0
						c-0.2,0-0.5,0.1-0.9,0.4c-0.3,0.2-0.4,0.2-0.5,0.2c-0.4,0.1-0.9,0.2-1.6,0.3c-0.3,0.1-0.5,0.1-0.7,0.2c-0.3,0-0.6,0.1-0.7,0.3
						c-0.1,0.1-0.1,0.2-0.1,0.4c0.1,0.5,0.4,0.7,0.8,0.6c0.3-0.1,0.7-0.2,1.1-0.3c0.5-0.1,0.9-0.1,1.1-0.2c0.1,0,0.3-0.1,0.4-0.1
						c0.2-0.1,0.3-0.1,0.4-0.2l-0.2,1.3l-0.1,0l0,0.3c0,0,0,0.1,0,0.2c-0.1,0-0.2,0-0.2,0c-0.5,0.1-0.6,0.4-0.6,0.7
						c0,0.2,0.1,0.4,0.3,0.8c0.1,0.3,0.2,0.5,0.2,0.7l0,0.2l0.2,0c0,0,0,0,0,0.3l0,0.1l0,0.1c0,0,0.1,0.3,0.3,1.4l0.1,1.1
						c0.2,0.8,0.1,1,0.1,1.1c0,0-0.1,0-0.2,0.1c-0.1,0.1-0.4,0.3-0.4,0.6c0,0.3,0.2,0.4,0.3,0.5c0.1,0.1,0.3,0.1,0.4,0.1
						c0,0.2,0.1,0.4,0.2,0.5c0.1,0.1,0.2,0.1,0.4,0.1c0,0,0.1,0,0.1,0l0.1,0c0.2-0.1,0.4-0.4,0.4-1c0.1-0.1,0.1-0.1,0.2-0.2
						c0.1-0.1,0.2-0.1,0.2-0.1l0.1,0c0.1-0.1,0.2-0.1,0.2-0.1c0.1,0,0.2,0,0.5-0.2c0.5-0.3,0.8-0.4,0.9-0.4c0,0.1,0.1,0.3,0.3,0.8
						c0.2,0.8,0.4,1.3,0.8,1.2c0.2,0,0.3-0.1,0.5-0.3c0,0,0-0.1,0-0.1l0.2,0l-0.2-1.5c0,0,0,0,0.1,0l0.2,0l0-0.2c0-0.4,0-1,0-1.8
						C65,33.8,65,33.4,65,33.1z M63,33.9l0.8-0.3c0.1,0,0.1-0.1,0.2-0.1c0,0.5,0,1,0,1.5l-0.3,0l0,0.4c-0.1,0-0.2,0-0.2,0.1
						c-0.5,0.2-1,0.3-1.5,0.5c-0.1,0-0.1,0-0.2,0.1l-0.2-1.7C62,34.3,62.4,34.2,63,33.9z M64.1,32C64,32.1,64,32.1,64.1,32
						c-0.2,0.2-0.1,0.4-0.1,0.5c0,0.1,0,0.1,0,0.2c-0.1-0.2-0.4-0.3-0.7-0.3c-0.2,0-0.5,0.1-1,0.2c-0.4,0.1-0.7,0.2-0.9,0.2l0,0
						l0-0.4c0.1-0.1,0.1-0.2,0.1-0.3l0,0c0.6-0.7,1.4-1.1,2.3-1.2c0,0,0.1,0,0.1,0c0,0.1,0,0.1,0.1,0.2C64.1,31.5,64.1,31.8,64.1,32
						z M60.9,27.9L60.9,27.9L60.9,27.9C60.9,27.9,60.9,27.9,60.9,27.9z"/>
					<path class="st0" d="M49.2,16.5c0.1,0.1,0.2,0.2,0.3,0.3c0.4,0.4,0.8,0.7,1.3,0.7c0.1,0,0.1,0,0.2,0c0.2-0.1,0.5-0.3,0.6-0.9
						l0-0.3l-0.4,0.1c-0.1-0.1-0.2,0-0.3,0l-0.1,0c0,0-0.1-0.1-0.2-0.2c-0.5-0.5-0.9-0.8-1.3-0.7c-0.1,0-0.3,0.1-0.4,0.1
						c-0.3,0.1-0.4,0.3-0.3,0.6l0,0.1l0.1,0.1c0.1,0.1,0.2,0.1,0.4,0.2C49.2,16.5,49.2,16.5,49.2,16.5z"/>
					<path class="st0" d="M67.1,11.2l-0.3,0c-1,0-1.2-0.3-1.2-0.4l-0.3-1.1l-0.1-0.2C65,8.7,64.5,8,64,7.3c-0.1-0.1-0.2-0.1-0.4-0.1
						c-0.1,0-0.3,0.1-0.4,0.2L63,7.4l0,0.1c-0.1,0.3-0.1,0.7-0.2,1.2l0,0.4l0.1,0l0,0.1c-0.1,0.2-0.2,0.3-0.2,0.5l0.1,0.3l0.4-0.1
						l0.1-0.1c0.1-0.1,0.1-0.3,0.1-0.4l0-0.3l0.3,0l0-0.2c0,0.1,0.1,0.2,0.1,0.3c0.1,0.3,0.2,0.5,0.3,0.6c0.1,0.3,0.2,0.6,0.3,0.9
						c-0.2,0-0.4,0.1-0.5,0.3c-0.1,0.1-0.2,0.3-0.2,0.6c0,0.1,0.1,0.3,0.2,0.4c0.1,0.1,0.2,0.1,0.3,0.1c0.1,0,0.2,0,0.3-0.1l0.2,0
						c0,0.1,0,0.1,0,0.2l0.3,2.6c0,0.1,0,0.4,0,1c0,0.2,0,0.4,0,0.6l-0.2,0l-0.1,0.1c-0.1,0.1-0.1,0.2-0.1,0.3c0,0.1,0,0.1,0,0.1
						l-0.1,0.1l0.1,0.5c0.1,0.4,0.2,1.2,0.7,1.2c0,0,0,0,0.1,0c0.3,0,0.5-0.2,0.7-0.4l0.1-0.1l0-0.1c0-0.2,0-0.4,0-0.8
						c0-2-0.1-3.6-0.2-4.7l0.1,0.1l0.4,0c0.3,0,0.5-0.1,0.6-0.3c0.1-0.1,0.2-0.3,0.2-0.6L67.1,11.2z M62.9,9.3L62.9,9.3L62.9,9.3
						C62.9,9.3,62.9,9.3,62.9,9.3z M62.8,9.5c0,0,0-0.1,0.1-0.1l0.1,0l0,0.1L62.8,9.5z"/>
					<path class="st0" d="M57,18.4c0.1,0,0.2,0,0.3-0.1l0.3,0l1.4-0.6c0.4-0.2,0.6-0.5,0.4-0.9c-0.1-0.5-0.3-1.1-0.6-1.8
						c-0.1-0.3-0.1-0.2-0.1-0.2c0-0.1,0-0.2-0.1-0.3c0-0.3-0.2-0.6-0.4-0.8l-0.2-0.1L58,13.6c-0.3,0.2-0.2,0.5-0.2,0.9
						c0,0.2,0.1,0.5,0.2,0.8l0.2,1.2c-0.1,0.1-0.3,0.3-1.2,0.5c-1.3,0-1.4-0.5-1.4-0.7c0-0.3-0.1-0.8-0.3-1.5
						c-0.2-0.7-0.3-1.3-0.3-1.6c0-0.3,0.1-0.5,0.1-0.5l1-0.6c0.2-0.2,0.3-0.4,0.3-0.8c0-0.2-0.1-0.3-0.2-0.3
						C56.1,11,56,10.9,55.8,11l-0.3,0l-0.1,0c-0.1,0.1-0.2,0.1-0.2,0.1c0,0-0.1,0-0.2-0.1c-0.2-0.2-0.4-0.2-0.7-0.2
						c-0.2,0-0.6,0.2-0.6,1c0,0.1,0,0.2,0,0.2c-0.6,0.4-1.2,0.6-2,0.8l-0.3,0c-0.1,0-0.3,0.1-0.4,0.2L51,13.1
						c-0.2,0.2-0.3,0.4-0.2,0.6c0,0.3,0.2,0.5,0.5,0.5l0,0l0,0c0.7-0.1,1.4-0.3,2.2-0.7c0,0,0,0,0,0c0,0.1-0.1,0.2-0.1,0.3
						c-0.5,1.4-0.6,1.7-0.7,1.8l0,0.1c0,0.1,0,0.1-0.1,0.2l0-0.2l-0.4,0.6l0,0c-0.3,0.2-0.4,0.6-0.4,1.2c0,0.2,0.1,0.3,0.1,0.4
						c0.1,0.1,0.3,0.2,0.4,0.2l0.3,0l0.1-0.1c0.4-0.5,0.9-1.3,1.3-2.4c0,0,0,0,0,0l0.1,1c0.1,0.2,0.1,0.3,0.1,0.4l0,0.3l0.1,0
						c0,0.1,0.1,0.1,0.1,0.2c0.4,0.6,1,1,2,1C56.7,18.4,56.9,18.4,57,18.4z"/>
					<path class="st0" d="M52.9,39.7c-0.4-0.2-0.5-0.3-0.5-0.3l-0.1-0.1c-1.2-1-2.2-1.6-3.2-1.9c0-0.1,0.1-0.3,0.1-0.5
						c0.2-0.5,0.2-0.6,0.2-0.7c0-0.2,0-0.4,0-0.5c0.3,0.3,0.5,0.3,0.8,0.3c0.9-0.3,1.2-1.8,1.1-4.9c0-0.3-0.1-0.6-0.3-0.7
						c-0.2-0.1-0.4-0.2-0.7-0.2c-0.5,0.1-1.1,0.3-1.9,0.7l-0.1,0.1c0,0-0.1,0.1-0.3,0.2c-0.7,0.5-1.1,0.8-1.3,1
						c-0.1-0.2-0.1-0.4-0.1-0.4c0,0,0-0.1,0.3-0.3l1.7-2.3c0.4-0.7,0.6-1.1,0.5-1.5c-0.1-0.3-0.3-0.5-0.6-0.6l-0.1,0l-1.1,0.1
						c-0.1,0-0.2,0-0.4,0l-0.1,0c0,0-0.2,0.1-0.9,0.2c-0.1,0-0.2,0-0.3,0.1c-0.6,0.2-1.1,0.4-1,0.8c0,0.3,0.2,0.7,1.1,0.7l0.2,0
						c0,0,0,0,0.1,0c0.1,0.1,0.2,0.1,0.3,0.1l0.3,0l0-0.3c0-0.1,0-0.1-0.1-0.2c0.2-0.1,0.5-0.2,1.2-0.3c0,0,0.1,0,0.1,0
						c0,0.1-0.1,0.2-0.2,0.3L47.4,29c-0.1,0.2-0.1,0.3-0.2,0.3l-0.1,0.1c-0.5,0.7-0.9,1.1-1,1.4c0,0,0,0-0.1,0
						c-0.2-0.2-0.4-0.3-0.7-0.3c-0.3,0.1-0.5,0.3-0.5,0.7l0.1,1l0,0.1c0.1,0.1,0.2,0.2,0.4,0.3c0.1,0.1,0.2,0.2,0.2,0.7
						c0.1,0.5,0.3,1.3,0.4,2.3c0.2,1.1,0.4,1.9,0.5,2.4l0,0.1l0.1,0.1c0.1,0.2,0.3,0.2,0.5,0.2l0.1,0c0.1-0.1,0.3-0.2,0.4-0.4
						c0,0.2-0.1,0.3-0.1,0.5l-0.2,0l0,0.2l0,0.1c-0.2,0.5-0.5,1-0.7,1.4c-0.1,0.1-0.1,0.1-0.2,0.1l-0.1-0.8l-0.3,0.1
						c-0.2,0.1-0.6,0.3-0.4,1.1c0.1,0.5,0.8,0.6,1.1,0.6l0.1,0l0.1,0c0.3-0.2,0.7-0.5,0.9-0.9l0.1,0l0-0.1c0,0,0-0.1,0.1-0.3
						c0.2-0.3,0.2-0.4,0.3-0.5c0.1-0.1,0.2-0.4,0.4-1l0-0.1l0.4,0.3c0.1,0,0.2,0.1,0.4,0.3c0.4,0.3,0.6,0.3,0.7,0.4
						c0.1,0.1,0.4,0.3,1.3,1l0.1,0.1l0,0l0.3,0.2l0.2,0.1c0,0,0.1,0.1,0.1,0.2c0.1,0.1,0.3,0.5,0.7,0.5c0,0,0,0,0.1,0l0.1,0
						c0.2-0.1,0.3-0.3,0.3-0.7l0,0l0,0C53.6,40.3,53.5,40.2,52.9,39.7z M49.9,34.9C49.9,34.9,49.9,34.8,49.9,34.9
						c-0.1-0.1-0.2-0.2-0.3-0.3c-0.2-0.7-0.3-1.4-0.3-2.2l0-0.1c0-0.1-0.1-0.2-0.2-0.2c0.4-0.3,0.7-0.4,1-0.4l0.1,0
						C50.3,32.9,50.2,34.1,49.9,34.9z M47.7,36.1c-0.1-0.4-0.2-0.8-0.2-1l0-0.3l-0.3,0l0-0.1c0-0.1,0-0.2-0.1-0.4l0-0.2
						c0-0.1,0-0.1,0-0.2c0,0,0,0,0,0c0.3,0,0.3-0.3,0.4-0.5c0.2-0.3,0.4-0.5,0.7-0.7l0.1,0.7c0.2,1.4,0.2,2.4,0,3.1
						c-0.1,0.3-0.2,0.6-0.2,0.9c0-0.1,0-0.3,0-0.4C47.9,36.9,47.8,36.6,47.7,36.1z"/>
					<path class="st0" d="M87.4,7.3l-0.2-0.1l-0.1,0c-0.3,0-0.6,0.3-1,0.8l-0.2,0.2c-0.1-0.7-0.3-1.2-0.7-1.5
						c-0.3-0.3-0.7-0.3-1.2-0.2l-0.1,0c-0.2,0.1-0.5,0.2-0.9,0.4c-0.2,0.1-0.4,0.2-0.5,0.3c-0.4,0.3-0.7,0.6-1,0.8
						c0-0.1,0-0.1-0.1-0.3l0,0l0.7-0.8l0.1-0.1l0-0.1c0,0,0.1-0.1,0.1-0.1c0.1-0.1,0.1-0.2,0.2-0.4c0.5-1,0.7-1.7,0.6-2.3l0-0.4
						l-0.1-0.1c-0.1-0.1-0.3-0.1-0.5-0.1c-0.2,0-0.3,0.1-0.5,0.4l-0.1,0.1L81.8,4c0.1,0.3,0.1,0.5-0.1,0.9c-0.1,0.2-0.1,0.4-0.1,0.5
						l-1.1,1.8c0,0-0.1,0-0.3,0.1c-0.9,0.3-1,0.9-1,1.3c0,0.3,0.1,0.4,0.3,0.5c0.1,0.1,0.3,0.1,0.4,0.1c0.2,0,0.4-0.2,0.6-0.3
						c0.1,0,0.1-0.1,0.1-0.1c0,0,0,0.1,0.1,0.3c0,0,0,0.1-0.1,0.2c-0.1,0.3-0.1,0.4-0.1,0.6c0,0.2,0.2,0.5,0.4,0.8
						c0.1,0.2,0.2,0.4,0.3,0.4c0.4,0.9,0.6,1.9,0.7,2.9c0,0.1,0,0.2,0.1,0.3c0.1,0.6,0.5,0.7,0.7,0.6c0.4-0.1,0.7-0.5,0.9-1.5
						c0.1-0.3,0.1-0.3,0.1-0.3c0.1-0.1,0.2-0.3,0.3-0.5c0.2-0.3,0.3-0.5,0.4-0.7l0.5,1.2c0,0.6,0.1,2.1,1.2,2.2l0.2,0l0.1-0.4
						c0,0,0,0,0-0.1l0.2,0l0-0.3c0-0.5-0.1-1.2-0.2-2.1c-0.1-0.9-0.1-1.6-0.2-2.1l0-0.3c-0.1-0.2-0.1-0.3-0.1-0.4c0,0,0-0.1,0.2-0.2
						l0.1-0.1c0.1-0.1,0.1-0.3,0.2-0.4l0.4-0.5c0.4-0.7,0.6-0.8,0.6-0.8l0.2-0.1l0-0.2C87.5,7.4,87.5,7.3,87.4,7.3z M85,11.4
						c0-0.1,0-0.1,0-0.2c0-0.1,0-0.1,0-0.2c0,0.1,0,0.1,0,0.2C85,11.3,85,11.4,85,11.4z M84.5,7.7c0.1,0.1,0.2,0.2,0.2,0.9l0.1,0.6
						C84.3,9.1,83.6,9,82.7,9c-0.1,0-0.1,0-0.2,0c-0.1,0-0.2,0-0.3,0.1c0.6-0.8,1.3-1.3,2.1-1.4C84.4,7.7,84.5,7.7,84.5,7.7z
						 M82.6,11.4l-0.1-0.7c-0.1-0.1-0.1-0.3-0.1-0.4c0.1,0,0.3,0,0.7,0c0,0,0.1,0,0.3,0c0.4,0,0.7,0,0.8,0l0,0c-0.8,1-1,1.3-1.1,1.4
						c0,0-0.1,0.1-0.3,0.6C82.7,12.1,82.6,11.8,82.6,11.4z"/>
					<path class="st0" d="M93.5,8.4c0,0,0-0.1,0-0.3c0-0.2,0-0.3,0-0.4c-0.1-0.9-0.3-1.6-0.8-2.1l-0.2-0.2l-0.2,0.1c0,0-0.1,0-0.1,0
						c-0.2,0-0.3,0-0.4,0c-0.3,0-0.6,0.2-1.2,0.5c-0.2,0.1-0.4,0.2-0.5,0.3c-0.3,0.1-0.6,0.3-0.9,0.3C89.8,5.7,90,5,90,4.5
						c0-0.2,0-0.4-0.2-0.5c-0.1-0.1-0.2-0.1-0.4-0.1c-0.3,0-0.6,0.2-0.8,0.6l-0.1,0l0,0.1c0,0,0,0.2-0.3,0.8
						c-0.6,1.6-0.6,1.7-0.6,1.8c0,0.3,0.2,0.7,1.1,0.7c0.2,0,0.4-0.1,0.6-0.2C89.8,7.5,90,7.5,90,7.5l0.1,0L91.1,7
						c0.2,0,0.3,0,0.5-0.2c0.1-0.1,0.2-0.1,0.2-0.1c0.1,0,0.1,0,0.2,0c0.1,0.1,0.2,0.2,0.3,0.8c0,0.3,0,0.8-0.1,1.5L92.1,10l0,0.1
						L91.8,12l0,0l0,0c0,0,0,0,0,0.2c-0.1,0.3-0.2,0.5-0.2,0.5c-0.1,0-0.3-0.2-0.6-1l-0.5-0.8L89.8,11l0.1,1.1
						c0.5,1.4,1,2.1,1.6,2.1c0,0,0,0,0,0l0.1,0c0.4-0.1,0.6-0.3,0.8-0.7c0.1-0.1,0.2-0.3,0.3-0.9l0.1-0.1c0-0.1,0.1-0.5,0.3-1.1
						c0.1-0.3,0.1-0.4,0.1-0.5c0.1-0.4,0.2-1.1,0.3-2.3L93.5,8.4L93.5,8.4z"/>
					<path class="st0" d="M91.7,10.2c0.2,0,0.3-0.1,0.4-0.2c0.1-0.1,0.1-0.2,0.1-0.5c-0.2-0.5-0.6-0.8-1.3-0.9L89.5,8l-0.7,0.1
						l-0.2,0.3l0,0.1c0,0,0,0,0,0.1l-0.1,0.3L88.8,9c0,0,0.1,0,0.5,0.3l0.2,0.1l0.1,0l0.9,0.3C91.2,10.1,91.5,10.2,91.7,10.2z"/>
					<path class="st0" d="M80.8,27.5l-0.3,0l0.1,0.6c-0.1,0.1-0.2,0.1-0.4,0.2L80,27.7c0-0.1-0.1-0.4-0.2-1
						c-0.1-0.5-0.2-0.8-0.2-0.9c-0.5-2.2-1.1-3.2-2-3.1c-0.3,0-0.5,0.2-0.5,0.5l0,0l0,0c0,0.2,0.2,0.5,0.4,0.9
						c0.2,0.3,0.4,0.6,0.4,0.7l0,0.1c-0.4-0.1-0.9-0.1-1.3-0.1c0,0-0.1,0-0.1,0l0,0l-0.1,0c-0.7,0.2-1,0.5-1.1,1
						c0.1,0.5,0.4,0.7,0.7,0.6c0.2,0,0.3-0.1,0.5-0.2c0.2-0.1,0.3-0.2,0.5-0.2c0.3,0,0.5,0,0.8,0.1l0.1,0.1c0.1,0.1,0.3,0.1,0.3,0.1
						c0.1,0,0.1,0,0.1,0c0,0.1,0.1,0.3,0.1,0.4c-0.1,0-0.1,0-0.2,0c-0.3,0-0.6,0.1-1.2,0.3c-0.4,0.1-0.7,0.2-0.9,0.3l0-0.2l-0.4,0.3
						c-0.1,0.1-0.3,0.2-0.2,0.6c0,0.2,0.2,0.4,0.4,0.5c0.2,0.1,0.4,0.1,0.6,0l0.2,0l0.1,0c0,0,0.1-0.1,0.7-0.3
						c0.5-0.2,0.7-0.2,0.7-0.2c0,0,0,0,0.1,0l0.1,0l0.1,0c0,0,0,0,0,0c0,0.2,0.1,0.4,0.1,0.7l0,0.2L77,29.7
						c-0.1-0.1-0.2-0.1-0.4-0.1l-0.1,0l-0.1,0.1c0,0.1-0.2,0.2-0.6,0.3c0,0,0,0,0,0c0-0.1-0.1-0.1-0.1-0.2l-0.1-0.4l-0.8,0.5
						c-0.4,0.2-0.7,0.4-0.8,0.6c-0.4,0.4-0.7,0.7-1.2,0.8c0-0.1,0-0.4,0-0.8l0-0.3c0-0.1,0-0.3,0-0.4c0-0.3,0-0.4,0-0.6
						c0-0.1-0.1-0.3-0.2-0.4l0,0c0.3-0.2,0.7-0.4,1.3-0.6l1.1-0.6l0-0.1c0.1-0.2,0.1-0.3,0.2-0.5l0-0.1l-0.1-0.1
						c-0.2-0.2-0.3-0.3-0.4-0.3l-0.4,0.1c-0.4,0-0.8,0.3-1.3,0.6c-0.2,0.2-0.4,0.3-0.5,0.3l-0.1,0.1c-0.1,0-0.1,0.1-0.1,0.1
						c0,0,0-0.1,0-0.2c-0.1-0.4-0.3-1-0.6-1.3l1.6-0.2c0.2,0,0.3-0.1,0.5-0.2c0.1-0.1,0.1-0.3,0.1-0.4c0-0.2,0-0.3-0.1-0.3
						c0-0.1-0.2-0.2-0.4-0.1c-0.6,0.1-1.2,0.1-1.7,0.2L71,24.9c-0.3,0-0.5,0-0.5,0l-0.2,0c-0.4,0.1-0.7,0.4-0.6,0.8
						c0,0.1,0.1,0.2,0.2,0.3l0.1,0.1l0.1,0c0.1,0,0.2,0,0.3,0c-0.1,0.1-0.1,0.3-0.1,0.4c0,0.2,0.1,0.3,0.3,0.5
						c0.2,0.3,0.3,0.7,0.4,1.1l0,0c-0.3,0.2-0.8,0.4-1.4,0.5c-0.2,0-0.4,0-0.7,0c-0.3-0.1-0.5-0.1-0.7-0.1c-0.2,0-0.3,0.1-0.4,0.2
						s-0.1,0.2-0.1,0.4c0,0.2,0.1,0.3,0.2,0.4c0.3,0.2,0.7,0.2,1.3,0.1l0.2,0c0.3,0,0.6-0.1,1.1-0.3c0.3-0.1,0.5-0.1,0.6-0.1l0.1,1
						c0,0,0,0.1-0.1,0.7l-0.1,0.3c0,0.1-0.2,0.4-0.5,0.9c-0.5,0.8-0.7,1.5-0.7,2c0,0.2,0.1,0.4,0.2,0.5c0.1,0.1,0.2,0.1,0.4,0.1
						c0.2,0,0.4-0.2,0.9-1l0.1,0.7c0,0.2,0.1,0.4,0.3,0.5c0.1,0.1,0.2,0.1,0.5,0.1l0.2,0l0.1-0.2c0.3-0.7,0.3-0.7,0.3-0.8
						c-0.1-0.4,0-0.9,0-1.5l1.3-0.7l0.1,0l0-0.1c0,0,0.1-0.1,0.6-0.5c0.1-0.1,0.2-0.2,0.3-0.3c0,0.1,0.1,0.1,0.1,0.2
						c0.1,0.1,0.2,0.1,0.4,0.1c0.3,0,0.8-0.2,1.5-0.5c0.3-0.1,0.5-0.2,0.6-0.2c0.1,0,0.2-0.1,0.4-0.2c0.4-0.2,0.6-0.3,0.8-0.3
						c0.1,1.6,0.1,3.3,0.1,5c-0.2,0.3-0.3,0.9-0.3,1.7l0,0.2c0.1,0.6,0.4,0.7,0.6,0.7c0,0,0.1,0,0.1,0c0.4-0.1,0.6-0.6,0.7-1
						c0-0.1,0-0.1,0-0.2l0,0l0-0.2c0.1-0.5,0.1-1,0.1-1.4c0-0.1,0-0.2,0-0.5c0-2.2-0.1-3.4-0.1-3.7c0-0.3,0-0.7,0.1-1.1
						c0,0,0.1-0.1,0.3-0.1c0.2-0.1,0.3-0.1,0.3-0.2l0.1,0c0.1,0,0.1-0.1,0.2-0.1l0,0c0.1,0,0.1,0,0.3-0.1c0.2,0,0.2-0.2,0.2-0.4
						c0.1-0.1,0.1-0.1,0.1-0.2l0.1-0.2l-0.2-0.2C81.7,27.6,81.2,27.5,80.8,27.5z M79.3,29.8C79.3,29.8,79.3,29.8,79.3,29.8
						L79.3,29.8L79.3,29.8L79.3,29.8z M79.1,29.9C79.1,29.9,79,29.9,79.1,29.9L79.1,29.9L79.1,29.9L79.1,29.9z M79.1,29.9L79.1,29.9
						L79.1,29.9L79.1,29.9L79.1,29.9z"/>
					<path class="st0" d="M44.3,32.2c-0.1-0.4-0.3-0.5-0.6-0.5l-0.1,0l-0.1,0.1c0,0-0.1,0-0.1,0l-0.1,0l-2.9,1.3
						c0,0-0.1,0.1-0.1,0.1l-0.1,0c0-0.1,0-0.1-0.1-0.2c-0.1-0.4-0.2-0.8-0.4-1c-0.1-0.2-0.3-0.5-0.6-0.9c-0.5-0.6-0.7-1-0.8-1.2
						c0.1-0.1,0.2-0.2,0.3-0.4l0.1-0.2l-0.2-0.1c-0.1-0.1-0.3-0.2-0.9-0.3l-0.1,0l-0.1,0c-0.6,0.1-0.6,0.5-0.6,0.6
						c0,0.7,0.4,1.5,1.1,2.2c0.2,0.2,0.4,0.4,0.5,0.6l0.1,0.2l0,0c0,0,0,0.1,0,0.1c0.1,0.2,0.2,0.3,0.3,0.4c0.1,0.2,0.1,0.5,0.2,0.8
						c0,0-0.1,0.3-1.3,0.8c-0.1,0.1-0.2,0.1-0.2,0.1l-0.1,0c-0.1,0.1-0.4,0.2-0.8,0.5c-0.5,0.3-0.8,0.5-0.9,0.5l-0.2,0.1l0,0.4
						c0,0.1,0.1,0.4,0.6,0.5l0.1,0l0.1,0c0.2-0.1,0.3-0.2,0.6-0.4l1.3-0.9l2.9-1.5l-2.7,3.6l0,0.1c-0.1,0.1-0.3,0.3-0.2,0.4l0,0.2
						c0,0.2,0,0.3,0,0.3l0,0.3l0.3,0c0.5-0.1,0.9-0.4,1.1-0.9l1.2-1.5c0.1,0.2,0.3,0.4,0.5,0.9c0.2,0.5,0.4,1.1,0.8,1.2
						c0,0.4-0.1,1-0.4,1.7L42,40.4l0,0l0,0.1c0,0.1-0.1,0.3-0.2,0.7l-0.1,0.3c0,0.1-0.1,0.2-0.2,0.4c-0.3,0.4-0.4,0.7-0.4,1
						c0,0.1,0.1,0.3,0.2,0.5l0.1,0.1l0.3,0c0.3,0,0.6-0.2,0.8-0.9c0-0.3,0.1-0.4,0.1-0.4h0l0.1,0l0-0.1c0.6-1.5,1-2.9,1.2-4.4l0-0.1
						c0-0.8,0.1-1.2,0.1-1.4l0,0l0-0.3c0-0.3,0-0.6-0.1-1l0-0.1c-0.1-0.7-0.5-0.8-0.7-0.8c0,0,0,0,0,0
						C44.3,32.8,44.3,32.5,44.3,32.2z M42.2,34.8c0.1-0.1,0.2-0.2,0.3-0.3c0,0,0,0.1,0,0.1l0.1,0.9c-0.1,0.2-0.2,0.3-0.2,0.5
						c0,0.1,0.1,0.3,0.3,0.3l0,0c0,0.2,0,0.3,0,0.3c0,0,0,0,0,0.1c0,0,0,0,0,0.1l-0.1-0.3l-0.1-0.1c-0.1-0.4-0.3-0.8-0.6-1.2
						L42.2,34.8z"/>
					<path class="st0" d="M28.7,15.9c0.1,0.1,0.3,0.1,0.5,0.1c0.3,0,0.6-0.1,0.9-0.3c0.1-0.1,0.2-0.1,0.2-0.1c0.1,0,0.2-0.1,0.4-0.2
						c0.5-0.3,0.8-0.5,0.9-0.6c0,0.1,0,0.3-0.1,0.6l-0.2,0.9c-0.2,1.1-0.6,2.2-1.1,3.3l0,0.1c-0.1,0.2-0.2,0.5-0.2,0.7
						c0,0.1-0.1,0.2-0.2,0.5c-0.1,0.3-0.2,0.4-0.2,0.4l0,0l-0.3,0c0,0,0,0-0.1,0.1L29,21.8l0.1,0.8c0,0.2,0.2,0.3,0.7,0.3
						c0.3-0.1,0.8-0.7,1.9-3.8c0.1-0.3,0.2-0.5,0.3-0.8c0.2-0.7,0.3-1.2,0.4-1.6l0.2,1.3c0.1,0.4,0.2,0.7,0.2,0.9
						c0.1,0.4,0.1,1.1,0.1,2c0,0.9,0,1.6,0.1,2.1c0.1,0.4,0.4,0.5,0.5,0.5l0.1,0l0.1,0c0.3-0.1,0.5-0.5,0.6-0.9l2.1-0.9l0,0
						c0,0,0.1,0.1,0.1,0.2l0.1,0.1c0.1,0.1,0.1,0.2,0.2,0.5l0,0.1l0.2,0.2l0.3,0.1c0,0,0,0,0.1,0.1c0.1,0.2,0.4,0.4,0.6,0.3
						c0.2,0,0.4-0.2,0.5-0.4c0-0.1,0-0.1,0-0.1l0.2-0.1l-0.1-1.1l0-0.1c-0.1-0.2-0.3-0.6-0.4-1.5l0-0.1l-0.1-0.1c0-0.1,0-0.1,0-0.2
						l0,0l-0.1-0.6c0-0.1-0.1-0.2-0.1-0.5l-0.1-0.4c-0.1-0.4-0.2-1-0.3-2c0-0.2,0-0.4,0-0.8l-0.1-0.7c0-0.4-0.3-0.6-0.7-0.6
						c-0.1,0-0.1,0-0.1,0l-0.4-0.1c-0.2,0-0.3,0-0.5,0c-0.6,0.1-1.1,0.3-1.7,0.7c-0.2,0.3-0.4,0.5-0.5,0.8c0,0,0,0-0.1,0
						c-0.1-0.1-0.2-0.2-0.4-0.2c0-0.2,0.1-0.4,0.2-0.6l0.1,0l0.1-0.1c0,0,0,0,0,0l1.7-0.6l0.1,0l1-0.6l0.1-0.1
						c0.1-0.1,0.2-0.3,0.2-0.7L36.4,12L36.3,12c-0.1-0.1-0.3-0.1-0.6-0.1l-0.1,0l-0.1,0c-0.1,0.1-0.3,0.2-0.8,0.4
						c-0.5,0.3-1,0.4-1.6,0.5c0,0,0,0,0,0c0-0.3,0.1-0.6,0.2-0.7c0.1-0.1,0.3-0.2,0.5-0.2l0.1,0l0.1,0c0.1,0,0.2-0.1,0.3-0.1
						c0,0.1,0,0.1,0,0.2l0.1,0.4l0.4-0.2c0.9-0.4,1.3-0.9,1.2-1.4c0-0.2-0.1-0.4-0.1-0.4c-0.2-0.2-0.5-0.1-0.6-0.1l-0.2,0l-0.1,0
						c-0.1,0-0.1,0-0.1,0l-0.1,0c-0.4,0.2-0.7,0.3-1,0.4l0,0c-0.2-0.4-0.4-0.6-0.6-0.7c-0.1,0-0.2-0.1-0.3-0.1l0.1-0.1
						c0.2-0.1,0.3-0.1,0.5-0.1c0.1,0,0.2,0,0.4,0c0.3,0,0.4,0,0.5,0l0.1,0l0.2-0.3l-0.1-0.9l-0.2,0c-0.4-0.1-0.6-0.1-0.8-0.1l-0.3,0
						c-0.3,0.1-0.5,0.1-0.6,0.1l-0.1,0c-0.2,0.1-0.3,0.2-0.6,0.4l-0.4,0.2c-0.4,0.2-0.9,0.5-1.5,0.9c-0.4,0.3-0.7,0.5-0.9,0.6L29,11
						c-0.2,0.2-0.4,0.4-0.3,0.9l0,0.2l0.1,0.1c0.1,0.2,0.3,0.3,0.5,0.4l0.1,0l0.1,0c0,0,0.1,0,0.3,0c0.2,0,0.3,0.1,0.4,0l1.8-0.2
						c0,0.4-0.1,0.7-0.1,0.9c0,0-0.1,0-0.1,0l-0.1,0c-0.1,0-0.1,0-0.1,0l-0.1,0c-0.6,0.3-1.3,0.7-1.9,0.9l-0.2,0l-0.1,0.1l-0.2,0
						l-0.1,0c-0.3,0.2-0.4,0.4-0.4,0.7C28.5,15.7,28.6,15.8,28.7,15.9z M33.7,16.2c0.3,0,0.4-0.3,0.5-0.5c0.3-0.6,0.8-0.9,1.2-0.9
						c0.2,0,0.4,0,0.5,0.1l0.2,1.5c0.1,0.4,0.2,0.7,0.2,0.7l0,0.3c0,0.1,0,0.2,0,0.3c-0.1-0.2-0.4-0.3-0.7-0.2c-0.1,0-0.2,0-0.2,0.1
						c0,0-0.1,0.1-0.1,0.1c-0.2,0.1-0.3,0.2-0.4,0.3c-0.6,0.4-0.9,0.5-1,0.6l-0.1-0.8c1.4-0.3,1.7-0.6,1.8-0.9l0-0.1l0-0.1
						c-0.1-0.4-0.5-0.6-1.3-0.5L34,16.3c-0.1,0.1-0.2,0.1-0.3,0.1L33.7,16.2L33.7,16.2z M36.6,18.6l0.2,1.6c0,0,0,0-0.1,0
						c-0.1,0-0.2,0-0.3,0c0,0,0-0.1,0-0.1l-0.1-0.3L35.7,20l0.1,0.5c-0.2,0.1-0.7,0.4-1.7,0.7C34,20.3,34,19.9,34,19.9
						c0.1,0,0.1-0.1,0.3-0.2c0.1,0,0.2-0.2,0.3-0.2c0,0,0.1-0.1,0.4-0.2c0.3-0.2,0.4-0.2,0.4-0.2l0.1,0c0.1,0,0.1-0.1,0.2-0.1l0.1,0
						l0.1,0c0.2,0,0.4-0.1,0.6-0.3c0.1-0.1,0.1-0.2,0.1-0.3C36.5,18.4,36.5,18.5,36.6,18.6z M32,10.7c0.1,0.1,0.1,0.2,0,0.3l0,0.1
						l0,0.1c0,0,0,0.1,0,0.1c0,0-0.1,0-0.4,0.1c-0.7,0.1-1,0.1-1.2,0.1l0,0l-0.1,0l1.5-0.9l0,0L32,10.7z M29.8,21.2
						c0.1,0,0.1,0.1,0.2,0.1l-0.1,0L29.8,21.2C29.8,21.2,29.8,21.2,29.8,21.2z"/>
					<path class="st0" d="M39.2,29.2c0.6,0.5,0.8,0.8,0.8,0.9c0,0,0,0,0,0.1c-0.1,0.1-0.1,0.3-0.1,0.4c0,0.3,0.2,0.4,0.5,0.5
						c0.2,0.3,0.3,0.7,0.4,1l0,0.2l0.2,0.1c0.1,0,0.2,0.1,0.3,0.1c0,0,0,0,0.1,0c0.2,0,0.6-0.1,0.5-0.9c0-0.2-0.1-0.4-0.1-0.6
						c-0.1-0.1-0.1-0.2-0.1-0.3c0.1-0.1,0.3-0.3,1.1-0.7l0.1,0l0.1,0c0.1,0,0.3-0.1,0.5-0.3l0.3,0l-0.1-0.4l0-0.1
						c-0.2-0.5-0.6-0.6-0.8-0.5l-1.5,0.7c-0.1,0-0.2,0-0.3,0.1c-0.1-0.1-0.2-0.2-0.3-0.4c-0.6-0.8-1-1.2-1.4-1.1
						c-0.1,0-0.4,0-0.6,0.2c-0.1,0.1-0.1,0.3-0.1,0.4C38.6,28.8,38.8,28.9,39.2,29.2z"/>
					<path class="st0" d="M20.1,31.2c-0.7,0.1-0.7,0.6-0.7,0.7l0,0c0.1,0.3,0.4,0.7,1.8,0.7c0.6,0,1.3-0.1,2.3-0.2l0.4,0l-0.1-0.4
						c-0.1-0.2-0.2-0.5-0.4-0.5l-2-0.2l-0.1,0l-0.1,0.1c0,0-0.1,0-0.4-0.1C20.3,31.2,20.2,31.2,20.1,31.2z"/>
					<path class="st0" d="M20.2,16.3L20.2,16.3l0-0.1c-0.1-0.2-0.3-0.5-0.8-0.5l-2,0.7c-0.2,0.1-0.6,0.2-1.1,0.3
						c-1.3,0.3-2.2,0.5-2.8,0.6L13,17.3c-0.3,0.1-0.5,0.1-0.5,0.1l-1.6,0.2c0,0,0,0-0.2,0c-0.1-0.1-0.3-0.1-0.4-0.1
						c-0.1,0-0.6,0.1-0.5,0.8c0,0.2,0.2,0.4,0.4,0.4c0.1,0,0.2,0,0.3,0c0.1,0,0.2,0,0.3,0c0.3,0,0.4,0,0.4,0l0.1,0l0.6-0.1
						c0.3,0,0.6-0.1,0.9-0.2l3.3-0.8c1-0.2,1.9-0.5,2.7-0.8l0.8-0.1C19.8,16.9,20.1,16.8,20.2,16.3z"/>
					<path class="st0" d="M34.9,38.4c-0.2-0.1-0.4-0.1-0.8,0l-0.3,0l0,0.3c0,0.1,0.1,0.3,0.1,0.4c0,0.1,0.1,0.2,0.1,0.2l0,0.1
						c-0.3,1.2-1,1.9-2.1,2c-0.8,0.1-1.6-0.3-2.4-1.1l-0.1-0.1c0-0.1-0.1-0.2-0.2-0.3c-0.1-0.2-0.2-0.3-0.2-0.4
						c0-0.1-0.1-0.2-0.1-0.3c0-0.1-0.1-0.2-0.1-0.3c0-0.1-0.1-0.2-0.1-0.3c0-0.1-0.1-0.1-0.1-0.1c0-0.1,0-0.1,0.1-0.2
						c0.1-0.1,0.2-0.2,0.3-0.4L29,38l0.1,0c0.6-0.1,1-0.6,1.4-1.6l0.8-2.9c0.2-0.4,0.2-1,0.1-1.6c-0.1-0.4-0.4-1-1.8-0.9
						c-1.7,0.3-2.6,0.7-2.8,1.3c-0.3-0.9-0.7-1.3-1.1-1.3c-0.3,0-0.5,0.2-0.5,0.5l0,0.1l0.1,0.4c0,0.1,0.1,0.1,0.1,0.1
						c0.1,0.2,0.2,0.4,0.3,0.7c0.3,0.8,0.5,1.4,0.6,1.8c0,0.2,0.1,0.4,0.2,0.7c0.2,1.8,0.5,2.2,0.7,2.4l0.1,0.1h0
						c0,0.1-0.1,0.2-0.1,0.3c-0.1,0.4-0.3,0.8-0.4,1.1l-0.3,0.1c-0.5,0.2-0.8,0.7-0.9,1.5c0.1,0.5,0.4,0.7,0.7,0.6
						c0.3,0,0.6-0.2,1.3-1.4c0.1-0.2,0.2-0.3,0.3-0.4c0.1,0.1,0.2,0.3,0.3,0.6c0.1,0.1,0.1,0.2,0.1,0.3l0,0.1c0.8,1.2,2,1.8,3.7,1.8
						c0.1,0,0.2,0,0.4,0c1.9-0.5,2.8-1.7,2.9-3.6C35.3,38.7,35.1,38.5,34.9,38.4z M27.4,33.2L27.4,33.2L27.4,33.2
						c0.2,0,0.3-0.1,0.3-0.1c0.1,0,0.2-0.1,0.4-0.2c0.8-0.4,1.4-0.6,1.8-0.6l0.1,0c0.1,0,0.2,0,0.3,0l0,0c-0.2,1.9-0.6,3.3-1.2,4.2
						c0-0.1,0-0.2,0.1-0.2l0.2-0.5c0.1-0.6,0.2-1.1,0.1-1.7l0-0.2c0-0.3-0.1-0.6-0.3-0.7c-0.1-0.1-0.2-0.2-0.5-0.2c0,0-0.1,0-0.1,0
						c-0.3,0-0.5,0.2-0.5,0.5l0,0l0,0c0.1,1,0,1.9-0.1,2.6c0,0-0.1,0-0.1,0c-0.1-0.2-0.1-0.3-0.2-0.5l0-0.1c0-0.1-0.1-0.2-0.1-0.5
						c-0.1-0.8-0.3-1.4-0.4-1.9C27.2,33.2,27.3,33.2,27.4,33.2z"/>
					<path class="st0" d="M24.9,35.2c0,0-0.1,0.1-0.2,0.2c-0.3,0.2-0.4,0.3-0.4,0.3c0,0.1-0.1,0.2-0.2,0.4c-0.1,0.2-0.4,0.5-0.8,1
						c0.1-0.1,0.1-0.3,0.2-0.5c0.3-0.6,0.4-1.1,0.4-1.3c0-0.3-0.1-0.4-0.2-0.5c-0.1-0.1-0.2-0.1-0.4-0.1c0,0-0.1,0-0.1,0
						c0,0,0-0.1,0-0.1l0-0.1l0-0.1c0-0.1-0.1-0.2-0.1-0.3L23,34.2C22.9,34,22.7,34,22.6,34c-0.2,0-0.4,0.1-0.7,0.3
						c-0.2,0.1-0.3,0.1-0.3,0.1c-0.1,0-0.2,0-0.3,0.1c-1.5,0.5-2.1,1-2,1.5c0.1,0.2,0.2,0.5,0.8,0.5c0.2,0,0.5-0.2,0.8-0.5
						c0.2-0.2,0.3-0.3,0.4-0.3c0.3-0.2,0.6-0.3,0.7-0.3c0,0.8,0,1.4,0,1.9c0,0.1-0.1,0.3-0.3,0.6c-0.1,0.3-0.2,0.4-0.2,0.5l-1,1.9
						c-0.4,0.5-0.5,0.9-0.5,1.3c0,0.1,0.1,0.5,0.7,0.5c0.3,0,0.6-0.2,1.3-1.6l0-0.1c0,0,0.1-0.1,0.1-0.2l0,0.3c0,0.4,0,0.7,0,1
						l0,0.3c0.1,0.5,0.2,0.9,0.3,1.2l0.1,0.1c0.1,0.1,0.2,0.2,0.4,0.2c0,0,0,0,0,0l0.1,0l0.1-0.1c0.1-0.1,0.1-0.2,0.2-0.3l0.2,0
						l0-0.1l0.1,0l0-0.8c0-0.8-0.1-1.2-0.1-1.3c0-0.1,0-0.3-0.1-0.5l0-0.1c-0.1-0.5-0.2-0.8-0.2-1l0-0.3l1.3-1.8l0-0.1
						c0,0,0-0.1,0.3-0.5c0.4-0.5,0.6-0.8,0.5-1.2l-0.1-0.7L24.9,35.2z"/>
				</g>
				<path class="st1" d="M18.9,55.5c-0.3,0-0.5,0.2-0.5,0.5c0,1.7-1.1,3-2.5,3.7c0.1-0.4,0.1-0.8,0.1-1.2c0-3.1-5.4-3.1-5.4,0
					c0,0.9,0.3,1.7,0.9,2.2c0.7,0.6,1.7,0.8,2.9,0.6c-0.9,1.9-2.9,3.1-6,3.6l-0.6-1.5c-0.1-0.2-0.2-0.3-0.3-0.4
					c-0.4-0.4-1.1-0.3-1.4,0.1l-2.5,3.1c-0.1,0.1-0.2,0.3-0.2,0.5c-0.1,0.5,0.3,1.1,0.8,1.1l3.9,0.6c0.2,0,0.3,0,0.5,0
					c0.5-0.2,0.8-0.8,0.6-1.3l-0.4-1.2c3.7-0.7,6.1-2.3,6.9-4.9c1.9-0.8,3.7-2.5,3.7-4.9C19.4,55.7,19.2,55.5,18.9,55.5z M14.8,60.2
					c-1.1,0.3-2.1,0.2-2.6-0.3c-0.4-0.3-0.5-0.8-0.5-1.4c0-1.1,1.1-1.4,1.7-1.4s1.7,0.3,1.7,1.4C15,59.1,15,59.7,14.8,60.2z"/>
			</g>
		</g>
	</g>
</g>
</svg>
